<mxfile host="Electron" agent="Mozilla/5.0 (Macintosh; Intel Mac OS X 10_15_7) AppleWebKit/537.36 (KHTML, like Gecko) draw.io/26.2.2 Chrome/134.0.6998.178 Electron/35.1.2 Safari/537.36" version="26.2.2">
  <diagram name="Page-1" id="90a13364-a465-7bf4-72fc-28e22215d7a0">
    <mxGraphModel dx="1176" dy="1004" grid="1" gridSize="10" guides="1" tooltips="1" connect="1" arrows="1" fold="1" page="1" pageScale="1.5" pageWidth="1169" pageHeight="826" background="none" math="0" shadow="0">
      <root>
        <mxCell id="0" style=";html=1;" />
        <mxCell id="1" style=";html=1;" parent="0" />
        <mxCell id="bjehG75LqYRLOa7fbefj-19" value="Hardware&amp;nbsp;" style="shape=cube;whiteSpace=wrap;html=1;boundedLbl=1;backgroundOutline=1;darkOpacity=0.05;darkOpacity2=0.1;fillColor=#f8cecc;strokeColor=#b85450;" vertex="1" parent="1">
          <mxGeometry x="110" y="330" width="790" height="60" as="geometry" />
        </mxCell>
        <mxCell id="bjehG75LqYRLOa7fbefj-4" value="FreeRTOS-FAT+CLI" style="shape=cube;whiteSpace=wrap;html=1;boundedLbl=1;backgroundOutline=1;darkOpacity=0.05;darkOpacity2=0.1;fillColor=#dae8fc;strokeColor=#6c8ebf;" vertex="1" parent="1">
          <mxGeometry x="630" y="290" width="270" height="60" as="geometry" />
        </mxCell>
        <mxCell id="bjehG75LqYRLOa7fbefj-2" value="LWIP" style="shape=cube;whiteSpace=wrap;html=1;boundedLbl=1;backgroundOutline=1;darkOpacity=0.05;darkOpacity2=0.1;fillColor=#dae8fc;strokeColor=#6c8ebf;" vertex="1" parent="1">
          <mxGeometry x="490" y="290" width="160" height="60" as="geometry" />
        </mxCell>
        <mxCell id="bjehG75LqYRLOa7fbefj-3" value="FreeRTOS" style="shape=cube;whiteSpace=wrap;html=1;boundedLbl=1;backgroundOutline=1;darkOpacity=0.05;darkOpacity2=0.1;fillColor=#dae8fc;strokeColor=#6c8ebf;" vertex="1" parent="1">
          <mxGeometry x="350" y="290" width="160" height="60" as="geometry" />
        </mxCell>
        <mxCell id="bjehG75LqYRLOa7fbefj-17" value="StorageManager/FatFsStorageManager" style="shape=cube;whiteSpace=wrap;html=1;boundedLbl=1;backgroundOutline=1;darkOpacity=0.05;darkOpacity2=0.1;fillColor=#dae8fc;strokeColor=#6c8ebf;" vertex="1" parent="1">
          <mxGeometry x="630" y="250" width="270" height="60" as="geometry" />
        </mxCell>
        <mxCell id="bjehG75LqYRLOa7fbefj-1" value="Pico SDK" style="shape=cube;whiteSpace=wrap;html=1;boundedLbl=1;backgroundOutline=1;darkOpacity=0.05;darkOpacity2=0.1;fillColor=#dae8fc;strokeColor=#6c8ebf;" vertex="1" parent="1">
          <mxGeometry x="110" y="290" width="260" height="60" as="geometry" />
        </mxCell>
        <mxCell id="bjehG75LqYRLOa7fbefj-5" value="TcpConnectionSocket" style="shape=cube;whiteSpace=wrap;html=1;boundedLbl=1;backgroundOutline=1;darkOpacity=0.05;darkOpacity2=0.1;fillColor=#dae8fc;strokeColor=#6c8ebf;" vertex="1" parent="1">
          <mxGeometry x="490" y="250" width="160" height="60" as="geometry" />
        </mxCell>
        <mxCell id="bjehG75LqYRLOa7fbefj-10" value="Event Manager/GpioEventManager" style="shape=cube;whiteSpace=wrap;html=1;boundedLbl=1;backgroundOutline=1;darkOpacity=0.05;darkOpacity2=0.1;fillColor=#dae8fc;strokeColor=#6c8ebf;" vertex="1" parent="1">
          <mxGeometry x="110" y="250" width="400" height="60" as="geometry" />
        </mxCell>
        <mxCell id="bjehG75LqYRLOa7fbefj-6" value="Http Server and Http Client" style="shape=cube;whiteSpace=wrap;html=1;boundedLbl=1;backgroundOutline=1;darkOpacity=0.05;darkOpacity2=0.1;fillColor=#dae8fc;strokeColor=#6c8ebf;" vertex="1" parent="1">
          <mxGeometry x="310" y="210" width="590" height="60" as="geometry" />
        </mxCell>
        <mxCell id="bjehG75LqYRLOa7fbefj-16" value="Middleware" style="shape=cube;whiteSpace=wrap;html=1;boundedLbl=1;backgroundOutline=1;darkOpacity=0.05;darkOpacity2=0.1;fillColor=#dae8fc;strokeColor=#6c8ebf;" vertex="1" parent="1">
          <mxGeometry x="660" y="170" width="240" height="60" as="geometry" />
        </mxCell>
        <mxCell id="bjehG75LqYRLOa7fbefj-7" value="Router, HttpRequest &amp;amp; HttpResponse Objects&amp;nbsp;" style="shape=cube;whiteSpace=wrap;html=1;boundedLbl=1;backgroundOutline=1;darkOpacity=0.05;darkOpacity2=0.1;fillColor=#dae8fc;strokeColor=#6c8ebf;" vertex="1" parent="1">
          <mxGeometry x="310" y="170" width="370" height="60" as="geometry" />
        </mxCell>
        <mxCell id="bjehG75LqYRLOa7fbefj-8" value="JWT Validation and Generation" style="shape=cube;whiteSpace=wrap;html=1;boundedLbl=1;backgroundOutline=1;darkOpacity=0.05;darkOpacity2=0.1;fillColor=#dae8fc;strokeColor=#6c8ebf;" vertex="1" parent="1">
          <mxGeometry x="660" y="130" width="240" height="60" as="geometry" />
        </mxCell>
        <mxCell id="bjehG75LqYRLOa7fbefj-9" value="Password Hashing" style="shape=cube;whiteSpace=wrap;html=1;boundedLbl=1;backgroundOutline=1;darkOpacity=0.05;darkOpacity2=0.1;fillColor=#dae8fc;strokeColor=#6c8ebf;" vertex="1" parent="1">
          <mxGeometry x="460" y="130" width="220" height="60" as="geometry" />
        </mxCell>
        <mxCell id="bjehG75LqYRLOa7fbefj-11" value="Timer Service" style="shape=cube;whiteSpace=wrap;html=1;boundedLbl=1;backgroundOutline=1;darkOpacity=0.05;darkOpacity2=0.1;fillColor=#dae8fc;strokeColor=#6c8ebf;" vertex="1" parent="1">
          <mxGeometry x="310" y="130" width="170" height="60" as="geometry" />
        </mxCell>
        <mxCell id="bjehG75LqYRLOa7fbefj-12" value="FrameworkTask" style="shape=cube;whiteSpace=wrap;html=1;boundedLbl=1;backgroundOutline=1;darkOpacity=0.05;darkOpacity2=0.1;fillColor=#dae8fc;strokeColor=#6c8ebf;" vertex="1" parent="1">
          <mxGeometry x="110" y="210" width="220" height="60" as="geometry" />
        </mxCell>
        <mxCell id="bjehG75LqYRLOa7fbefj-13" value="FrameworkController" style="shape=cube;whiteSpace=wrap;html=1;boundedLbl=1;backgroundOutline=1;darkOpacity=0.05;darkOpacity2=0.1;fillColor=#dae8fc;strokeColor=#6c8ebf;" vertex="1" parent="1">
          <mxGeometry x="110" y="170" width="220" height="60" as="geometry" />
        </mxCell>
        <mxCell id="bjehG75LqYRLOa7fbefj-14" value="Framework View &amp;amp;. Model" style="shape=cube;whiteSpace=wrap;html=1;boundedLbl=1;backgroundOutline=1;darkOpacity=0.05;darkOpacity2=0.1;fillColor=#dae8fc;strokeColor=#6c8ebf;" vertex="1" parent="1">
          <mxGeometry x="110" y="130" width="220" height="60" as="geometry" />
        </mxCell>
        <mxCell id="bjehG75LqYRLOa7fbefj-18" value="User Application" style="shape=cube;whiteSpace=wrap;html=1;boundedLbl=1;backgroundOutline=1;darkOpacity=0.05;darkOpacity2=0.1;fillColor=#ffe6cc;strokeColor=#d79b00;" vertex="1" parent="1">
          <mxGeometry x="110" y="90" width="790" height="60" as="geometry" />
        </mxCell>
      </root>
    </mxGraphModel>
  </diagram>
</mxfile>
